# Alias OBJ Model File
# Exported from SketchUp, (c) 2000-2012 Trimble Navigation Limited
# File units = millimeters

mtllib macropad v3 simplee.mtl

g Mesh1 Group1 Model

usemtl FrontColor
v 161.209 8 -112.081
vt -3.54711 0.15748
vn -1 0 -0
v 161.209 7 -112.081
vt -3.54711 0.11811
v 161.209 7 -43.7711
vt -0.857742 0.11811
v 161.209 8 -43.7711
vt -0.857742 0.15748
f 1/1/1 2/2/1 3/3/1 4/4/1 

v 159.209 8 -112.081
vt 4.7527 0.15748
vn 0 -4.3715e-16 1
v 159.209 7 -112.081
vt 4.7527 0.11811
vt 4.83144 0.11811
vt 4.83144 0.15748
f 5/5/2 6/6/2 2/7/2 1/8/2 

v 159.209 8 -43.7711
vt 0.857742 0.15748
vn 1 0 -0
v 159.209 7 -43.7711
vt 0.857742 0.11811
vt 3.54711 0.11811
vt 3.54711 0.15748
f 7/9/3 8/10/3 6/11/3 5/12/3 

vt -4.83144 0.15748
vn 0 4.3715e-16 -1
vt -4.83144 0.11811
vt -4.7527 0.11811
vt -4.7527 0.15748
f 4/13/4 3/14/4 8/15/4 7/16/4 

v 165.366 7 -40.277
vt -4.99509 0.720178
vn 0 -1 -4.3715e-16
vt -4.7527 0.857742
vt -4.83144 0.857742
f 9/17/5 8/18/5 3/19/5

v 155.081 7 -40.277
vt -4.59017 0.720178
f 10/20/5 8/18/5 9/17/5

vt -4.7527 3.54711
f 8/18/5 10/20/5 6/21/5

v 155.081 7 -116.431
vt -4.59017 3.71837
f 11/22/5 6/21/5 10/20/5

v 165.366 7 -116.431
vt -4.99509 3.71837
f 6/21/5 11/22/5 12/23/5

v 155.081 4 -116.431
vt 4.59017 2.89649e-16
v 165.366 4 -116.431
vt 4.99509 2.89649e-16
vt 4.99509 0.11811
vt 4.59017 0.11811
f 13/24/2 14/25/2 12/26/2 11/27/2 

v 203.491 4 -121.484
vt -6.49606 3.91732
f 13/22/5 15/28/5 14/23/5

v 139.166 4 -116.431
vt -3.9636 3.71837
f 16/29/5 15/28/5 13/22/5

v 128.881 4 -116.431
vt -3.55868 3.71837
f 17/30/5 15/28/5 16/29/5

v 112.966 4 -116.431
vt -2.9321 3.71837
f 18/31/5 15/28/5 17/30/5

v 102.681 4 -116.431
vt -2.52718 3.71837
f 19/32/5 15/28/5 18/31/5

v 86.7659 4 -116.431
vt -1.9006 3.71837
f 20/33/5 15/28/5 19/32/5

v 76.4809 4 -116.431
vt -1.49568 3.71837
f 21/34/5 15/28/5 20/33/5

v 60.5659 4 -116.431
vt -0.869109 3.71837
f 22/35/5 15/28/5 21/34/5

v 50.2809 4 -116.431
vt -0.464187 3.71837
f 23/36/5 15/28/5 22/35/5

v 38.4905 4 -121.484
vt 0 3.91732
f 23/36/5 24/37/5 15/28/5

v 40.3789 4 -38.9048
vt -0.0743447 0.666157
f 25/38/5 24/37/5 23/36/5

v 38.4905 4 -21.9845
vt 0 0
f 24/37/5 25/38/5 26/39/5

v 40.3789 4 -26.9048
vt -0.0743447 0.193716
f 27/40/5 26/39/5 25/38/5

v 203.491 4 -21.9845
vt -6.49606 0
f 26/39/5 27/40/5 28/41/5

v 44.642 4 -26.9048
vt -0.242184 0.193716
f 28/41/5 27/40/5 29/42/5

vt -0.242184 2.7614e-16
vn -5.29185e-15 4.3715e-16 -1
vt -0.0743447 2.7614e-16
v 40.3789 7 -26.9048
vt -0.0743447 0.11811
v 44.642 7 -26.9048
vt -0.242184 0.11811
f 29/43/6 27/44/6 30/45/6 31/46/6 

vt 0.193716 3.60822e-16
vt 0.666157 5.82867e-16
v 40.3789 7 -38.9048
vt 0.666157 0.11811
vt 0.193716 0.11811
f 27/47/3 25/48/3 32/49/3 30/50/3 

vt 0.0743447 2.91656e-16
v 44.642 4 -38.9048
vt 0.242184 2.91656e-16
v 44.642 7 -38.9048
vt 0.242184 0.11811
vt 0.0743447 0.11811
f 25/51/2 33/52/2 34/53/2 32/54/2 

vt -0.242184 0.666157
f 25/38/5 23/36/5 33/55/5

v 50.2809 4 -40.277
vt -0.464187 0.720178
f 35/56/5 33/55/5 23/36/5

v 74.7476 4 -38.9048
vt -1.42744 0.666157
f 33/55/5 35/56/5 36/57/5

v 60.5659 4 -40.277
vt -0.869109 0.720178
f 36/57/5 35/56/5 37/58/5

vt -0.869109 2.95797e-16
vt -0.464187 2.95797e-16
v 50.2809 7 -40.277
vt -0.464187 0.11811
v 60.5659 7 -40.277
vt -0.869109 0.11811
f 37/59/4 35/60/4 38/61/4 39/62/4 

vt 0.720178 6.10623e-16
vt 3.71837 1.91513e-15
v 50.2809 7 -116.431
vt 3.71837 0.11811
vt 0.720178 0.11811
f 35/63/3 23/64/3 40/65/3 38/66/3 

vt 0.464187 2.89649e-16
vt 0.869109 2.89649e-16
v 60.5659 7 -116.431
vt 0.869109 0.11811
vt 0.464187 0.11811
f 23/67/2 22/68/2 41/69/2 40/70/2 

vt -3.71837 1.91513e-15
vt -0.720178 6.10623e-16
vt -0.720178 0.11811
vt -3.71837 0.11811
f 22/71/1 37/72/1 39/73/1 41/74/1 

f 22/35/5 21/34/5 37/58/5

f 37/58/5 21/34/5 36/57/5

v 76.4809 4 -40.277
vt -1.49568 0.720178
f 42/75/5 36/57/5 21/34/5

v 79.3789 4 -38.9048
vt -1.60978 0.666157
f 36/57/5 42/75/5 43/76/5

v 86.7659 4 -40.277
vt -1.9006 0.720178
f 43/76/5 42/75/5 44/77/5

vt -1.9006 2.95797e-16
vt -1.49568 2.95797e-16
v 76.4809 7 -40.277
vt -1.49568 0.11811
v 86.7659 7 -40.277
vt -1.9006 0.11811
f 44/78/4 42/79/4 45/80/4 46/81/4 

v 76.4809 7 -116.431
f 42/63/3 21/64/3 47/65/3 45/66/3 

vt 1.49568 2.89649e-16
vt 1.9006 2.89649e-16
v 86.7659 7 -116.431
vt 1.9006 0.11811
vt 1.49568 0.11811
f 21/82/2 20/83/2 48/84/2 47/85/2 

f 20/71/1 44/72/1 46/73/1 48/74/1 

f 20/33/5 19/32/5 44/77/5

v 102.681 4 -40.277
vt -2.52718 0.720178
f 49/86/5 44/77/5 19/32/5

f 28/41/5 44/77/5 49/86/5

v 79.3789 4 -26.9048
vt -1.60978 0.193716
f 28/41/5 50/87/5 44/77/5

v 74.7476 4 -26.9048
vt -1.42744 0.193716
f 28/41/5 51/88/5 50/87/5

f 28/41/5 29/42/5 51/88/5

vt -1.42744 2.7614e-16
v 74.7476 7 -26.9048
vt -1.42744 0.11811
f 51/89/4 29/43/4 31/46/4 52/90/4 

v 49.7233 7 -29.2008
vt -0.442234 0.284107
f 31/42/5 53/91/5 52/88/5

v 49.7233 7 -36.3288
vt -0.442234 0.564737
f 53/91/5 31/42/5 54/92/5

f 34/55/5 54/92/5 31/42/5

v 74.7476 7 -38.9048
f 54/92/5 34/55/5 55/57/5

vt 1.42744 2.91656e-16
vt 1.42744 0.11811
f 33/52/2 36/93/2 55/94/2 34/53/2 

vt 1.60978 2.91656e-16
v 79.3789 7 -38.9048
vt 1.60978 0.11811
f 36/93/2 43/95/2 56/96/2 55/94/2 

vt -0.666157 5.82867e-16
vt -0.193716 3.60822e-16
v 79.3789 7 -26.9048
vt -0.193716 0.11811
vt -0.666157 0.11811
f 43/97/1 50/98/1 57/99/1 56/100/1 

f 43/76/5 44/77/5 50/87/5

vt -1.60978 2.7614e-16
vn 4.87115e-15 4.3715e-16 -1
vt -1.60978 0.11811
f 50/101/7 51/89/7 52/90/7 57/102/7 

f 52/88/5 55/57/5 56/76/5 57/87/5 

v 72.8633 7 -29.2008
vt -1.35326 0.284107
f 52/88/5 58/103/5 55/57/5

f 52/88/5 53/91/5 58/103/5

v 72.8633 8 -29.2008
vt -1.35326 0.15748
vt -1.35326 0.11811
vt -0.442234 0.11811
v 49.7233 8 -29.2008
vt -0.442234 0.15748
f 59/104/4 58/105/4 53/106/4 60/107/4 

v 72.8633 8 -36.3288
vt -0.564737 0.15748
v 72.8633 7 -36.3288
vt -0.564737 0.11811
vt -0.284107 0.11811
vt -0.284107 0.15748
f 61/108/1 62/109/1 58/110/1 59/111/1 

v 49.7233 8 -36.3288
vt 0.442234 0.15748
vt 0.442234 0.11811
vt 1.35326 0.11811
vt 1.35326 0.15748
f 63/112/2 54/113/2 62/114/2 61/115/2 

vt 0.284107 0.15748
vt 0.284107 0.11811
vt 0.564737 0.11811
vt 0.564737 0.15748
f 60/116/3 53/117/3 54/118/3 63/119/3 

vt 0.442234 0.564737
vn 0 1 4.3715e-16
v 38.4905 8 -121.484
vt 0.442234 0.284107
f 63/120/8 64/37/8 60/121/8

v 54.4092 8 -112.081
vt 0.626718 3.54711
f 65/122/8 64/37/8 63/120/8

v 203.491 8 -121.484
vt 6.49606 3.91732
f 64/37/8 65/122/8 66/123/8

v 56.4092 8 -112.081
vt 0.705459 3.54711
f 66/123/8 65/122/8 67/124/8

vt 0.626718 0.15748
v 54.4092 7 -112.081
vt 0.626718 0.11811
v 56.4092 7 -112.081
vt 0.705459 0.11811
vt 0.705459 0.15748
f 65/125/2 68/126/2 69/127/2 67/128/2 

v 54.4092 8 -43.7711
v 54.4092 7 -43.7711
f 70/9/3 71/10/3 68/11/3 65/12/3 

v 56.4092 8 -43.7711
vt -0.705459 0.15748
v 56.4092 7 -43.7711
vt -0.705459 0.11811
vt -0.626718 0.11811
vt -0.626718 0.15748
f 72/129/4 73/130/4 71/131/4 70/132/4 

f 67/1/1 69/2/1 73/3/1 72/4/1 

vt -0.705459 3.54711
vt -0.705459 0.857742
f 69/133/5 41/35/5 73/134/5

vt -0.626718 3.54711
f 68/135/5 41/35/5 69/133/5

f 68/135/5 40/36/5 41/35/5

f 40/36/5 68/135/5 38/56/5

vt -0.626718 0.857742
f 71/136/5 38/56/5 68/135/5

f 38/56/5 71/136/5 39/58/5

f 39/58/5 71/136/5 73/134/5

f 39/58/5 73/134/5 41/35/5

vt 0.705459 0.857742
vt 1.35326 0.564737
f 72/137/8 61/138/8 67/124/8

vt 0.626718 0.857742
f 70/139/8 61/138/8 72/137/8

f 61/138/8 70/139/8 63/120/8

f 65/122/8 63/120/8 70/139/8

v 80.6092 8 -112.081
vt 1.65821 3.54711
f 74/140/8 67/124/8 61/138/8

f 66/123/8 67/124/8 74/140/8

v 82.6092 8 -112.081
vt 1.73695 3.54711
f 66/123/8 74/140/8 75/141/8

vt 1.65821 0.15748
v 80.6092 7 -112.081
vt 1.65821 0.11811
v 82.6092 7 -112.081
vt 1.73695 0.11811
vt 1.73695 0.15748
f 74/142/2 76/143/2 77/144/2 75/145/2 

v 80.6092 8 -43.7711
v 80.6092 7 -43.7711
f 78/9/3 79/10/3 76/11/3 74/12/3 

v 82.6092 8 -43.7711
vt -1.73695 0.15748
v 82.6092 7 -43.7711
vt -1.73695 0.11811
vt -1.65821 0.11811
vt -1.65821 0.15748
f 80/146/4 81/147/4 79/148/4 78/149/4 

f 75/1/1 77/2/1 81/3/1 80/4/1 

vt -1.73695 3.54711
vt -1.73695 0.857742
f 77/150/5 48/33/5 81/151/5

vt -1.65821 3.54711
f 76/152/5 48/33/5 77/150/5

f 76/152/5 47/34/5 48/33/5

f 47/34/5 76/152/5 45/75/5

vt -1.65821 0.857742
f 79/153/5 45/75/5 76/152/5

f 45/75/5 79/153/5 46/77/5

f 46/77/5 79/153/5 81/151/5

f 46/77/5 81/151/5 48/33/5

vt 1.73695 0.857742
v 106.809 8 -43.7711
vt 2.68971 0.857742
f 80/154/8 82/155/8 75/141/8

v 203.491 8 -21.9845
vt 6.49606 6.88426e-17
f 80/154/8 83/156/8 82/155/8

vt 1.65821 0.857742
f 78/157/8 83/156/8 80/154/8

f 61/138/8 83/156/8 78/157/8

vt 1.35326 0.284107
f 59/158/8 83/156/8 61/138/8

f 60/121/8 83/156/8 59/158/8

v 38.4905 8 -21.9845
vt 0 6.88426e-17
f 60/121/8 84/159/8 83/156/8

f 84/159/8 60/121/8 64/37/8

vt 0 0.15748
vt -3.91732 0.15748
vt -3.91732 1.72085e-15
f 84/160/1 64/161/1 24/162/1 26/39/1 

vt -6.49606 0.15748
vt -6.49606 8.38677e-18
vt 0 8.38677e-18
f 64/160/4 66/163/4 15/164/4 24/165/4 

vt 3.91732 0.15748
vt 3.91732 1.72085e-15
f 66/166/3 83/160/3 28/39/3 15/167/3 

v 187.409 8 -112.081
vt 5.86294 3.54711
f 66/123/8 85/168/8 83/156/8

v 185.409 8 -112.081
vt 5.7842 3.54711
f 66/123/8 86/169/8 85/168/8

vt 4.83144 3.54711
f 66/123/8 1/170/8 86/169/8

vt 4.7527 3.54711
f 66/123/8 5/171/8 1/170/8

v 135.009 8 -112.081
vt 3.79995 3.54711
f 66/123/8 87/172/8 5/171/8

v 133.009 8 -112.081
vt 3.72121 3.54711
f 66/123/8 88/173/8 87/172/8

v 108.809 8 -112.081
vt 2.76845 3.54711
f 66/123/8 89/174/8 88/173/8

v 106.809 8 -112.081
vt 2.68971 3.54711
f 66/123/8 90/175/8 89/174/8

f 66/123/8 75/141/8 90/175/8

f 90/175/8 75/141/8 82/155/8

v 106.809 7 -43.7711
v 106.809 7 -112.081
f 82/9/3 91/10/3 92/11/3 90/12/3 

v 108.809 8 -43.7711
vt -2.76845 0.15748
v 108.809 7 -43.7711
vt -2.76845 0.11811
vt -2.68971 0.11811
vt -2.68971 0.15748
f 93/176/4 94/177/4 91/178/4 82/179/4 

v 108.809 7 -112.081
f 89/1/1 95/2/1 94/3/1 93/4/1 

vt 2.68971 0.15748
vt 2.68971 0.11811
vt 2.76845 0.11811
vt 2.76845 0.15748
f 90/180/2 92/181/2 95/182/2 89/183/2 

vt -2.68971 3.54711
v 112.966 7 -116.431
vt -2.76845 3.54711
f 92/184/5 96/31/5 95/185/5

v 102.681 7 -116.431
f 92/184/5 97/32/5 96/31/5

v 102.681 7 -40.277
f 97/32/5 92/184/5 98/86/5

vt -2.68971 0.857742
f 91/186/5 98/86/5 92/184/5

v 112.966 7 -40.277
vt -2.9321 0.720178
f 98/86/5 91/186/5 99/187/5

vt -2.76845 0.857742
f 99/187/5 91/186/5 94/188/5

f 99/187/5 94/188/5 96/31/5

f 95/185/5 96/31/5 94/188/5

v 112.966 4 -40.277
f 18/71/1 100/72/1 99/73/1 96/74/1 

f 18/31/5 17/30/5 100/187/5

v 128.881 4 -40.277
vt -3.55868 0.720178
f 101/189/5 100/187/5 17/30/5

f 28/41/5 100/187/5 101/189/5

f 28/41/5 49/86/5 100/187/5

vt -2.9321 2.95797e-16
vt -2.52718 2.95797e-16
vt -2.52718 0.11811
vt -2.9321 0.11811
f 100/190/4 49/191/4 98/192/4 99/193/4 

f 49/63/3 19/64/3 97/65/3 98/66/3 

vt 2.52718 2.89649e-16
vt 2.9321 2.89649e-16
vt 2.9321 0.11811
vt 2.52718 0.11811
f 19/194/2 18/195/2 96/196/2 97/197/2 

v 139.166 4 -40.277
vt -3.9636 0.720178
f 28/41/5 101/189/5 102/198/5

vt -3.9636 2.95797e-16
vt -3.55868 2.95797e-16
v 128.881 7 -40.277
vt -3.55868 0.11811
v 139.166 7 -40.277
vt -3.9636 0.11811
f 102/199/4 101/200/4 103/201/4 104/202/4 

v 128.881 7 -116.431
f 101/63/3 17/64/3 105/65/3 103/66/3 

vt 3.55868 2.89649e-16
vt 3.9636 2.89649e-16
v 139.166 7 -116.431
vt 3.9636 0.11811
vt 3.55868 0.11811
f 17/203/2 16/204/2 106/205/2 105/206/2 

f 16/71/1 102/72/1 104/73/1 106/74/1 

f 16/29/5 13/22/5 102/198/5

v 155.081 4 -40.277
f 107/20/5 102/198/5 13/22/5

f 28/41/5 102/198/5 107/20/5

v 165.366 4 -40.277
f 28/41/5 107/20/5 108/17/5

vt -4.99509 2.95797e-16
vt -4.59017 2.95797e-16
vt -4.59017 0.11811
vt -4.99509 0.11811
f 108/207/4 107/208/4 10/209/4 9/210/4 

f 107/63/3 13/64/3 11/65/3 10/66/3 

f 14/71/1 108/72/1 9/73/1 12/74/1 

v 181.281 4 -116.431
vt -5.62167 3.71837
f 14/23/5 109/211/5 108/17/5

f 14/23/5 15/28/5 109/211/5

v 191.566 4 -116.431
vt -6.02659 3.71837
f 109/211/5 15/28/5 110/212/5

v 191.566 4 -40.277
vt -6.02659 0.720178
f 110/212/5 15/28/5 111/213/5

f 28/41/5 111/213/5 15/28/5

v 181.281 4 -40.277
vt -5.62167 0.720178
f 28/41/5 112/214/5 111/213/5

f 28/41/5 108/17/5 112/214/5

f 112/214/5 108/17/5 109/211/5

v 181.281 7 -116.431
v 181.281 7 -40.277
f 112/63/3 109/64/3 113/65/3 114/66/3 

vt 5.62167 2.89649e-16
vt 6.02659 2.89649e-16
v 191.566 7 -116.431
vt 6.02659 0.11811
vt 5.62167 0.11811
f 109/215/2 110/216/2 115/217/2 113/218/2 

v 191.566 7 -40.277
f 110/71/1 111/72/1 116/73/1 115/74/1 

vt -6.02659 2.95797e-16
vt -5.62167 2.95797e-16
vt -5.62167 0.11811
vt -6.02659 0.11811
f 111/219/4 112/220/4 114/221/4 116/222/4 

v 185.409 7 -43.7711
vt -5.7842 0.857742
f 114/214/5 117/223/5 116/213/5

v 185.409 7 -112.081
vt -5.7842 3.54711
f 117/223/5 114/214/5 118/224/5

f 113/211/5 118/224/5 114/214/5

f 118/224/5 113/211/5 115/212/5

v 187.409 7 -112.081
vt -5.86294 3.54711
f 118/224/5 115/212/5 119/225/5

v 187.409 7 -43.7711
vt -5.86294 0.857742
f 119/225/5 115/212/5 120/226/5

f 116/213/5 120/226/5 115/212/5

f 116/213/5 117/223/5 120/226/5

v 187.409 8 -43.7711
vt -5.86294 0.15748
vt -5.86294 0.11811
vt -5.7842 0.11811
v 185.409 8 -43.7711
vt -5.7842 0.15748
f 121/227/4 120/228/4 117/229/4 122/230/4 

f 85/1/1 119/2/1 120/3/1 121/4/1 

vt 5.7842 0.15748
vt 5.7842 0.11811
vt 5.86294 0.11811
vt 5.86294 0.15748
f 86/231/2 118/232/2 119/233/2 85/234/2 

f 122/9/3 117/10/3 118/11/3 86/12/3 

vt 5.7842 0.857742
f 86/169/8 1/170/8 122/235/8

vt 4.83144 0.857742
f 4/236/8 122/235/8 1/170/8

f 4/236/8 83/156/8 122/235/8

vt 4.7527 0.857742
f 7/237/8 83/156/8 4/236/8

v 135.009 8 -43.7711
vt 3.79995 0.857742
f 123/238/8 83/156/8 7/237/8

v 133.009 8 -43.7711
vt 3.72121 0.857742
f 124/239/8 83/156/8 123/238/8

vt 2.76845 0.857742
f 93/240/8 83/156/8 124/239/8

f 82/155/8 83/156/8 93/240/8

f 93/240/8 124/239/8 89/174/8

f 88/173/8 89/174/8 124/239/8

v 133.009 7 -43.7711
v 133.009 7 -112.081
f 124/9/3 125/10/3 126/11/3 88/12/3 

vt -3.79995 0.15748
v 135.009 7 -43.7711
vt -3.79995 0.11811
vt -3.72121 0.11811
vt -3.72121 0.15748
f 123/241/4 127/242/4 125/243/4 124/244/4 

v 135.009 7 -112.081
f 87/1/1 128/2/1 127/3/1 123/4/1 

vt 3.72121 0.15748
vt 3.72121 0.11811
vt 3.79995 0.11811
vt 3.79995 0.15748
f 88/245/2 126/246/2 128/247/2 87/248/2 

vt -3.72121 3.54711
vt -3.79995 3.54711
f 126/249/5 106/29/5 128/250/5

f 126/249/5 105/30/5 106/29/5

f 105/30/5 126/249/5 103/189/5

vt -3.72121 0.857742
f 125/251/5 103/189/5 126/249/5

f 103/189/5 125/251/5 104/198/5

vt -3.79995 0.857742
f 104/198/5 125/251/5 127/252/5

f 104/198/5 127/252/5 106/29/5

f 128/250/5 106/29/5 127/252/5

f 123/238/8 7/237/8 87/172/8

f 5/171/8 87/172/8 7/237/8

vt 5.86294 0.857742
f 122/235/8 83/156/8 121/253/8

f 121/253/8 83/156/8 85/168/8

f 9/17/5 3/19/5 12/23/5

vt -4.83144 3.54711
f 2/254/5 12/23/5 3/19/5

f 6/21/5 12/23/5 2/254/5

vt 6.49606 0.15748
vt 6.49606 0
f 83/255/2 84/160/2 26/39/2 28/256/2 

f 74/140/8 61/138/8 78/157/8

vt -1.35326 0.564737
f 54/92/5 55/57/5 62/257/5

f 62/257/5 55/57/5 58/103/5

f 32/38/5 34/55/5 31/42/5 30/40/5 

